# xmcd CD database file
#
# Track frame offsets:
#	150
#	20947
#	32852
#	48217
#	62212
#	74527
#	97170
#	110967
#	124260
#	137420
#
# Disc length: 1960 seconds
#
# Revision: 2
# Processed by: cddbd v1.5.1PL0 Copyright (c) Steve Scherf et al.
# Submitted via: CDex 1.40Release
#
DISCID=9d07a60a
DTITLE=Various Artist - David Allan Coe and Johnny Paycheck
DYEAR=1995
DGENRE=Country
TTITLE0=You never even called me by my name
TTITLE1=Take this job and shove it
TTITLE2=Branded man
TTITLE3=Someone to give my love to
TTITLE4=(don't take her) She's all I got
TTITLE5=If that ain't country (I'll kiss your SSS)
TTITLE6=I'm the only hell (mama ever raised)
TTITLE7=Widow Maker
TTITLE8=Heaven's almost as big as Texas
TTITLE9=Frankie and Johnny
EXTD=YEAR: 1995 ID3G: 2
EXTT0=
EXTT1=
EXTT2=
EXTT3=
EXTT4=
EXTT5=
EXTT6=
EXTT7=
EXTT8=
EXTT9=
PLAYORDER=
